STARTFONT 2.1
COMMENT
COMMENT Converted from OpenType font "monaco.ttf" by "otf2bdf 3.0".
COMMENT
FONT -FreeType-Monaco-Medium-R-Normal--15-110-96-96-P-71-ISO10646-1
SIZE 11 96 96
FONTBOUNDINGBOX 12 21 0 -6
STARTPROPERTIES 19
FOUNDRY "FreeType"
FAMILY_NAME "Monaco"
WEIGHT_NAME "Medium"
SLANT "R"
SETWIDTH_NAME "Normal"
ADD_STYLE_NAME ""
PIXEL_SIZE 15
POINT_SIZE 110
RESOLUTION_X 96
RESOLUTION_Y 96
SPACING "P"
AVERAGE_WIDTH 71
CHARSET_REGISTRY "ISO10646"
CHARSET_ENCODING "1"
FONT_ASCENT 15
FONT_DESCENT 3
COPYRIGHT "© 1990-97 Apple Computer Inc. © 1990-97 Type Solutions Inc. © 1990-97 The Font Bureau Inc."
_OTF_FONTFILE "monaco.ttf"
_OTF_PSNAME "Monaco"
ENDPROPERTIES
CHARS 402
STARTCHAR 0020
ENCODING 32
SWIDTH 613 0
DWIDTH 9 0
BBX 0 0 0 0
BITMAP
ENDCHAR
STARTCHAR 0021
ENCODING 33
SWIDTH 613 0
DWIDTH 9 0
BBX 3 11 3 0
BITMAP
40
40
40
40
40
40
40
40
00
40
E0
ENDCHAR
STARTCHAR 0022
ENCODING 34
SWIDTH 613 0
DWIDTH 9 0
BBX 5 4 2 8
BITMAP
D8
D8
D8
88
ENDCHAR
STARTCHAR 0023
ENCODING 35
SWIDTH 613 0
DWIDTH 9 0
BBX 7 11 1 0
BITMAP
12
22
24
FE
24
4C
48
FE
48
90
90
ENDCHAR
STARTCHAR 0024
ENCODING 36
SWIDTH 613 0
DWIDTH 9 0
BBX 7 14 1 -1
BITMAP
10
10
7C
D0
D0
D0
70
18
1E
12
12
96
F8
10
ENDCHAR
STARTCHAR 0025
ENCODING 37
SWIDTH 613 0
DWIDTH 9 0
BBX 9 12 0 0
BITMAP
0080
7100
9300
9A00
9400
7C00
0B00
1580
3C80
2C80
4480
4700
ENDCHAR
STARTCHAR 0026
ENCODING 38
SWIDTH 613 0
DWIDTH 9 0
BBX 9 12 0 0
BITMAP
3800
6C00
4400
4C00
7800
3000
7900
C900
8F00
8600
C700
7D80
ENDCHAR
STARTCHAR 0027
ENCODING 39
SWIDTH 613 0
DWIDTH 9 0
BBX 3 5 3 7
BITMAP
E0
E0
40
40
40
ENDCHAR
STARTCHAR 0028
ENCODING 40
SWIDTH 613 0
DWIDTH 9 0
BBX 7 15 1 -3
BITMAP
0E
18
30
60
40
40
C0
C0
C0
40
60
20
30
1C
06
ENDCHAR
STARTCHAR 0029
ENCODING 41
SWIDTH 613 0
DWIDTH 9 0
BBX 7 15 1 -3
BITMAP
E0
30
18
0C
04
04
06
06
06
04
0C
08
18
70
C0
ENDCHAR
STARTCHAR 002A
ENCODING 42
SWIDTH 613 0
DWIDTH 9 0
BBX 7 7 1 5
BITMAP
10
10
D6
38
7C
54
10
ENDCHAR
STARTCHAR 002B
ENCODING 43
SWIDTH 613 0
DWIDTH 9 0
BBX 7 8 1 0
BITMAP
10
10
10
FE
FE
10
10
10
ENDCHAR
STARTCHAR 002C
ENCODING 44
SWIDTH 613 0
DWIDTH 9 0
BBX 3 5 3 -3
BITMAP
E0
E0
20
40
C0
ENDCHAR
STARTCHAR 002D
ENCODING 45
SWIDTH 613 0
DWIDTH 9 0
BBX 5 1 2 4
BITMAP
F8
ENDCHAR
STARTCHAR 002E
ENCODING 46
SWIDTH 613 0
DWIDTH 9 0
BBX 3 2 3 0
BITMAP
C0
E0
ENDCHAR
STARTCHAR 002F
ENCODING 47
SWIDTH 613 0
DWIDTH 9 0
BBX 8 12 1 0
BITMAP
03
02
04
04
08
18
10
20
20
40
C0
80
ENDCHAR
STARTCHAR 0030
ENCODING 48
SWIDTH 613 0
DWIDTH 9 0
BBX 7 12 1 0
BITMAP
38
6C
C6
86
8A
9A
92
A2
E2
C6
C6
7C
ENDCHAR
STARTCHAR 0031
ENCODING 49
SWIDTH 613 0
DWIDTH 9 0
BBX 7 11 1 0
BITMAP
38
F8
98
18
18
18
18
18
18
18
FE
ENDCHAR
STARTCHAR 0032
ENCODING 50
SWIDTH 613 0
DWIDTH 9 0
BBX 7 12 1 0
BITMAP
38
EC
06
06
04
08
10
20
60
C0
C0
FE
ENDCHAR
STARTCHAR 0033
ENCODING 51
SWIDTH 613 0
DWIDTH 9 0
BBX 7 12 1 0
BITMAP
78
CC
04
04
0C
78
0C
06
02
06
06
FC
ENDCHAR
STARTCHAR 0034
ENCODING 52
SWIDTH 613 0
DWIDTH 9 0
BBX 9 11 0 0
BITMAP
0600
0E00
1E00
1600
2600
6600
C600
FF80
0600
0600
0600
ENDCHAR
STARTCHAR 0035
ENCODING 53
SWIDTH 613 0
DWIDTH 9 0
BBX 7 11 1 0
BITMAP
FE
C0
C0
C0
F8
0C
06
02
06
86
FC
ENDCHAR
STARTCHAR 0036
ENCODING 54
SWIDTH 613 0
DWIDTH 9 0
BBX 7 12 1 0
BITMAP
1C
76
40
C0
80
BC
E6
C2
C2
C2
46
7C
ENDCHAR
STARTCHAR 0037
ENCODING 55
SWIDTH 613 0
DWIDTH 9 0
BBX 7 11 1 0
BITMAP
FE
02
06
04
08
10
30
20
60
60
60
ENDCHAR
STARTCHAR 0038
ENCODING 56
SWIDTH 613 0
DWIDTH 9 0
BBX 7 12 1 0
BITMAP
18
6C
46
46
64
38
38
4C
C6
82
C6
7C
ENDCHAR
STARTCHAR 0039
ENCODING 57
SWIDTH 613 0
DWIDTH 9 0
BBX 7 12 1 0
BITMAP
38
6C
86
86
86
86
CA
32
02
06
0C
F8
ENDCHAR
STARTCHAR 003A
ENCODING 58
SWIDTH 613 0
DWIDTH 9 0
BBX 3 8 3 0
BITMAP
E0
40
00
00
00
00
C0
E0
ENDCHAR
STARTCHAR 003B
ENCODING 59
SWIDTH 613 0
DWIDTH 9 0
BBX 3 11 3 -3
BITMAP
E0
C0
00
00
00
00
E0
E0
20
40
C0
ENDCHAR
STARTCHAR 003C
ENCODING 60
SWIDTH 613 0
DWIDTH 9 0
BBX 7 7 1 1
BITMAP
06
18
60
E0
38
0E
02
ENDCHAR
STARTCHAR 003D
ENCODING 61
SWIDTH 613 0
DWIDTH 9 0
BBX 7 4 1 2
BITMAP
FE
00
00
FE
ENDCHAR
STARTCHAR 003E
ENCODING 62
SWIDTH 613 0
DWIDTH 9 0
BBX 7 7 1 1
BITMAP
C0
30
0C
0E
38
E0
80
ENDCHAR
STARTCHAR 003F
ENCODING 63
SWIDTH 613 0
DWIDTH 9 0
BBX 6 12 2 0
BITMAP
70
D8
0C
0C
18
30
20
40
40
00
40
60
ENDCHAR
STARTCHAR 0040
ENCODING 64
SWIDTH 613 0
DWIDTH 9 0
BBX 9 12 0 0
BITMAP
1C00
2300
4100
9C80
B480
A480
A480
AC80
9300
4000
4000
3E00
ENDCHAR
STARTCHAR 0041
ENCODING 65
SWIDTH 613 0
DWIDTH 9 0
BBX 9 11 0 0
BITMAP
1C00
1C00
1400
1400
3600
2200
2200
7F00
4300
4100
C180
ENDCHAR
STARTCHAR 0042
ENCODING 66
SWIDTH 613 0
DWIDTH 9 0
BBX 7 11 1 0
BITMAP
FC
C4
C4
C4
CC
F8
C4
C6
C6
C6
FC
ENDCHAR
STARTCHAR 0043
ENCODING 67
SWIDTH 613 0
DWIDTH 9 0
BBX 7 12 1 0
BITMAP
1C
36
60
C0
C0
80
80
80
C0
C0
60
3E
ENDCHAR
STARTCHAR 0044
ENCODING 68
SWIDTH 613 0
DWIDTH 9 0
BBX 7 11 1 0
BITMAP
FC
C6
C2
C2
C2
C2
C2
C2
C6
CC
F8
ENDCHAR
STARTCHAR 0045
ENCODING 69
SWIDTH 613 0
DWIDTH 9 0
BBX 7 11 1 0
BITMAP
FE
C0
C0
C0
C0
FC
C0
C0
C0
C0
FE
ENDCHAR
STARTCHAR 0046
ENCODING 70
SWIDTH 613 0
DWIDTH 9 0
BBX 6 11 2 0
BITMAP
FC
80
80
80
80
F8
80
80
80
80
80
ENDCHAR
STARTCHAR 0047
ENCODING 71
SWIDTH 613 0
DWIDTH 9 0
BBX 7 12 1 0
BITMAP
1C
36
60
C0
C0
80
8E
8E
C6
C6
66
3E
ENDCHAR
STARTCHAR 0048
ENCODING 72
SWIDTH 613 0
DWIDTH 9 0
BBX 7 11 1 0
BITMAP
82
82
82
82
82
FE
82
82
82
82
82
ENDCHAR
STARTCHAR 0049
ENCODING 73
SWIDTH 613 0
DWIDTH 9 0
BBX 7 11 1 0
BITMAP
FE
10
10
10
10
10
10
10
10
10
FE
ENDCHAR
STARTCHAR 004A
ENCODING 74
SWIDTH 613 0
DWIDTH 9 0
BBX 6 11 1 0
BITMAP
3C
04
04
04
04
04
04
04
0C
0C
F8
ENDCHAR
STARTCHAR 004B
ENCODING 75
SWIDTH 613 0
DWIDTH 9 0
BBX 8 11 1 0
BITMAP
C6
CC
C8
D0
F0
F0
D0
D8
CC
C6
C3
ENDCHAR
STARTCHAR 004C
ENCODING 76
SWIDTH 613 0
DWIDTH 9 0
BBX 6 11 2 0
BITMAP
80
80
80
80
80
80
80
80
80
80
FC
ENDCHAR
STARTCHAR 004D
ENCODING 77
SWIDTH 613 0
DWIDTH 9 0
BBX 9 11 0 0
BITMAP
C180
E380
E380
E380
F780
D580
D580
DD80
C980
C180
C180
ENDCHAR
STARTCHAR 004E
ENCODING 78
SWIDTH 613 0
DWIDTH 9 0
BBX 7 11 1 0
BITMAP
C2
C2
E2
A2
B2
92
9A
8A
8E
86
86
ENDCHAR
STARTCHAR 004F
ENCODING 79
SWIDTH 613 0
DWIDTH 9 0
BBX 7 12 1 0
BITMAP
38
6C
C6
82
82
82
82
82
82
82
C6
7C
ENDCHAR
STARTCHAR 0050
ENCODING 80
SWIDTH 613 0
DWIDTH 9 0
BBX 7 11 1 0
BITMAP
FC
C6
C2
C2
C6
CC
F8
C0
C0
C0
C0
ENDCHAR
STARTCHAR 0051
ENCODING 81
SWIDTH 613 0
DWIDTH 9 0
BBX 8 15 1 -3
BITMAP
38
6C
C6
82
82
82
82
82
82
82
C6
7C
18
0C
07
ENDCHAR
STARTCHAR 0052
ENCODING 82
SWIDTH 613 0
DWIDTH 9 0
BBX 8 11 1 0
BITMAP
FC
C6
C6
C6
CC
F8
D8
CC
C4
C6
C3
ENDCHAR
STARTCHAR 0053
ENCODING 83
SWIDTH 613 0
DWIDTH 9 0
BBX 7 12 1 0
BITMAP
3C
64
C0
C0
40
70
1C
0E
06
02
06
FC
ENDCHAR
STARTCHAR 0054
ENCODING 84
SWIDTH 613 0
DWIDTH 9 0
BBX 9 11 0 0
BITMAP
FF80
0800
0800
0800
0800
0800
0800
0800
0800
0800
0800
ENDCHAR
STARTCHAR 0055
ENCODING 85
SWIDTH 613 0
DWIDTH 9 0
BBX 7 11 1 0
BITMAP
82
82
82
82
82
82
82
82
82
C6
7C
ENDCHAR
STARTCHAR 0056
ENCODING 86
SWIDTH 613 0
DWIDTH 9 0
BBX 7 11 1 0
BITMAP
82
82
C6
C6
44
64
6C
28
38
38
10
ENDCHAR
STARTCHAR 0057
ENCODING 87
SWIDTH 613 0
DWIDTH 9 0
BBX 9 11 0 0
BITMAP
C880
DD80
5D00
5500
5500
5500
5500
7700
6300
6300
6200
ENDCHAR
STARTCHAR 0058
ENCODING 88
SWIDTH 613 0
DWIDTH 9 0
BBX 7 11 1 0
BITMAP
C6
44
6C
38
38
38
38
6C
44
C6
82
ENDCHAR
STARTCHAR 0059
ENCODING 89
SWIDTH 613 0
DWIDTH 9 0
BBX 7 11 1 0
BITMAP
C2
C6
6C
28
38
10
10
10
10
10
10
ENDCHAR
STARTCHAR 005A
ENCODING 90
SWIDTH 613 0
DWIDTH 9 0
BBX 7 11 1 0
BITMAP
FE
06
0C
08
18
30
30
60
40
C0
FE
ENDCHAR
STARTCHAR 005B
ENCODING 91
SWIDTH 613 0
DWIDTH 9 0
BBX 6 15 3 -3
BITMAP
FC
80
80
80
80
80
80
80
80
80
80
80
80
80
FC
ENDCHAR
STARTCHAR 005C
ENCODING 92
SWIDTH 613 0
DWIDTH 9 0
BBX 8 12 0 0
BITMAP
C0
40
20
20
10
18
08
04
04
02
03
01
ENDCHAR
STARTCHAR 005D
ENCODING 93
SWIDTH 613 0
DWIDTH 9 0
BBX 6 15 0 -3
BITMAP
FC
04
04
04
04
04
04
04
04
04
04
04
04
04
FC
ENDCHAR
STARTCHAR 005E
ENCODING 94
SWIDTH 613 0
DWIDTH 9 0
BBX 7 8 1 3
BITMAP
10
10
28
28
44
44
82
82
ENDCHAR
STARTCHAR 005F
ENCODING 95
SWIDTH 613 0
DWIDTH 9 0
BBX 7 1 1 -1
BITMAP
FE
ENDCHAR
STARTCHAR 0060
ENCODING 96
SWIDTH 613 0
DWIDTH 9 0
BBX 3 3 3 9
BITMAP
80
40
20
ENDCHAR
STARTCHAR 0061
ENCODING 97
SWIDTH 613 0
DWIDTH 9 0
BBX 7 8 1 0
BITMAP
3E
42
C2
82
82
86
CA
72
ENDCHAR
STARTCHAR 0062
ENCODING 98
SWIDTH 613 0
DWIDTH 9 0
BBX 7 12 1 0
BITMAP
80
80
80
80
BC
E6
C2
82
82
86
8C
F8
ENDCHAR
STARTCHAR 0063
ENCODING 99
SWIDTH 613 0
DWIDTH 9 0
BBX 7 8 1 0
BITMAP
3E
60
C0
C0
C0
C0
60
3E
ENDCHAR
STARTCHAR 0064
ENCODING 100
SWIDTH 613 0
DWIDTH 9 0
BBX 7 12 1 0
BITMAP
02
02
02
02
3E
42
C2
82
82
86
CA
72
ENDCHAR
STARTCHAR 0065
ENCODING 101
SWIDTH 613 0
DWIDTH 9 0
BBX 7 8 1 0
BITMAP
7C
46
C2
FE
80
C0
42
3E
ENDCHAR
STARTCHAR 0066
ENCODING 102
SWIDTH 613 0
DWIDTH 9 0
BBX 8 12 1 0
BITMAP
1F
10
30
20
3E
FE
20
20
20
20
20
20
ENDCHAR
STARTCHAR 0067
ENCODING 103
SWIDTH 613 0
DWIDTH 9 0
BBX 7 11 1 -3
BITMAP
3E
42
C2
82
82
86
CA
72
06
06
FC
ENDCHAR
STARTCHAR 0068
ENCODING 104
SWIDTH 613 0
DWIDTH 9 0
BBX 7 12 1 0
BITMAP
C0
C0
C0
C0
FC
E6
C2
C2
C2
C2
C2
C2
ENDCHAR
STARTCHAR 0069
ENCODING 105
SWIDTH 613 0
DWIDTH 9 0
BBX 6 12 1 0
BITMAP
30
30
00
00
F0
30
30
30
30
30
30
3C
ENDCHAR
STARTCHAR 006A
ENCODING 106
SWIDTH 613 0
DWIDTH 9 0
BBX 6 15 1 -3
BITMAP
0C
0C
00
00
7C
0C
0C
0C
0C
0C
0C
0C
0C
08
F8
ENDCHAR
STARTCHAR 006B
ENCODING 107
SWIDTH 613 0
DWIDTH 9 0
BBX 6 12 2 0
BITMAP
80
80
80
80
8C
98
B0
E0
B0
90
98
8C
ENDCHAR
STARTCHAR 006C
ENCODING 108
SWIDTH 613 0
DWIDTH 9 0
BBX 6 12 1 0
BITMAP
F0
30
30
30
30
30
30
30
30
30
30
3C
ENDCHAR
STARTCHAR 006D
ENCODING 109
SWIDTH 613 0
DWIDTH 9 0
BBX 7 8 1 0
BITMAP
F6
DA
92
92
92
92
92
92
ENDCHAR
STARTCHAR 006E
ENCODING 110
SWIDTH 613 0
DWIDTH 9 0
BBX 7 8 1 0
BITMAP
FC
E6
C2
C2
C2
C2
C2
C2
ENDCHAR
STARTCHAR 006F
ENCODING 111
SWIDTH 613 0
DWIDTH 9 0
BBX 7 8 1 0
BITMAP
7C
C6
82
82
82
82
C6
7C
ENDCHAR
STARTCHAR 0070
ENCODING 112
SWIDTH 613 0
DWIDTH 9 0
BBX 7 11 1 -3
BITMAP
BC
E6
C2
82
82
86
8C
F8
80
80
80
ENDCHAR
STARTCHAR 0071
ENCODING 113
SWIDTH 613 0
DWIDTH 9 0
BBX 7 11 1 -3
BITMAP
3E
42
C2
82
82
86
CA
72
02
02
02
ENDCHAR
STARTCHAR 0072
ENCODING 114
SWIDTH 613 0
DWIDTH 9 0
BBX 6 8 2 0
BITMAP
BC
E4
C4
80
80
80
80
80
ENDCHAR
STARTCHAR 0073
ENCODING 115
SWIDTH 613 0
DWIDTH 9 0
BBX 7 8 1 0
BITMAP
7C
C0
40
78
1C
06
86
FC
ENDCHAR
STARTCHAR 0074
ENCODING 116
SWIDTH 613 0
DWIDTH 9 0
BBX 7 11 1 0
BITMAP
20
20
20
3E
FE
20
20
20
20
20
1E
ENDCHAR
STARTCHAR 0075
ENCODING 117
SWIDTH 613 0
DWIDTH 9 0
BBX 7 8 1 0
BITMAP
86
86
86
86
86
86
CE
76
ENDCHAR
STARTCHAR 0076
ENCODING 118
SWIDTH 613 0
DWIDTH 9 0
BBX 7 8 1 0
BITMAP
82
82
C6
44
6C
28
38
10
ENDCHAR
STARTCHAR 0077
ENCODING 119
SWIDTH 613 0
DWIDTH 9 0
BBX 9 8 0 0
BITMAP
C880
DC80
5500
5500
5700
6300
6300
6300
ENDCHAR
STARTCHAR 0078
ENCODING 120
SWIDTH 613 0
DWIDTH 9 0
BBX 7 8 1 0
BITMAP
C6
6C
28
30
38
6C
46
82
ENDCHAR
STARTCHAR 0079
ENCODING 121
SWIDTH 613 0
DWIDTH 9 0
BBX 8 11 0 -3
BITMAP
41
61
23
32
16
1C
0C
0C
08
18
F0
ENDCHAR
STARTCHAR 007A
ENCODING 122
SWIDTH 613 0
DWIDTH 9 0
BBX 7 8 1 0
BITMAP
FE
04
08
18
30
60
C0
FE
ENDCHAR
STARTCHAR 007B
ENCODING 123
SWIDTH 613 0
DWIDTH 9 0
BBX 6 15 2 -3
BITMAP
3C
20
20
20
30
30
20
C0
20
30
30
20
20
30
1C
ENDCHAR
STARTCHAR 007C
ENCODING 124
SWIDTH 613 0
DWIDTH 9 0
BBX 1 12 4 0
BITMAP
80
80
80
80
80
80
80
80
80
80
80
80
ENDCHAR
STARTCHAR 007D
ENCODING 125
SWIDTH 613 0
DWIDTH 9 0
BBX 6 15 1 -3
BITMAP
F0
10
10
10
30
30
10
0C
10
30
30
10
10
30
E0
ENDCHAR
STARTCHAR 007E
ENCODING 126
SWIDTH 613 0
DWIDTH 9 0
BBX 9 2 0 3
BITMAP
7880
8F00
ENDCHAR
STARTCHAR 00A0
ENCODING 160
SWIDTH 613 0
DWIDTH 9 0
BBX 0 0 0 0
BITMAP
ENDCHAR
STARTCHAR 00A1
ENCODING 161
SWIDTH 613 0
DWIDTH 9 0
BBX 3 11 3 -3
BITMAP
E0
40
00
40
40
40
40
40
40
40
40
ENDCHAR
STARTCHAR 00A2
ENCODING 162
SWIDTH 613 0
DWIDTH 9 0
BBX 7 14 1 -1
BITMAP
18
18
18
3E
7A
D8
98
98
D8
D8
7E
18
18
18
ENDCHAR
STARTCHAR 00A3
ENCODING 163
SWIDTH 613 0
DWIDTH 9 0
BBX 7 12 1 0
BITMAP
0C
36
20
20
20
F8
20
20
20
60
40
FE
ENDCHAR
STARTCHAR 00A4
ENCODING 164
SWIDTH 613 0
DWIDTH 9 0
BBX 7 9 1 1
BITMAP
82
FE
44
82
82
C6
6C
BA
82
ENDCHAR
STARTCHAR 00A5
ENCODING 165
SWIDTH 613 0
DWIDTH 9 0
BBX 7 11 1 0
BITMAP
82
C6
64
28
38
10
FE
10
FE
10
10
ENDCHAR
STARTCHAR 00A6
ENCODING 166
SWIDTH 613 0
DWIDTH 9 0
BBX 1 12 4 0
BITMAP
80
80
80
80
80
80
00
80
80
80
80
80
ENDCHAR
STARTCHAR 00A7
ENCODING 167
SWIDTH 613 0
DWIDTH 9 0
BBX 7 15 1 -3
BITMAP
38
6C
C0
C0
70
58
CE
C2
62
3E
0C
06
06
CC
78
ENDCHAR
STARTCHAR 00A8
ENCODING 168
SWIDTH 613 0
DWIDTH 9 0
BBX 5 1 2 9
BITMAP
D8
ENDCHAR
STARTCHAR 00A9
ENCODING 169
SWIDTH 613 0
DWIDTH 9 0
BBX 9 12 0 0
BITMAP
1C00
2200
4D00
9E80
A080
A080
A080
A080
B080
5F00
4100
3E00
ENDCHAR
STARTCHAR 00AA
ENCODING 170
SWIDTH 613 0
DWIDTH 9 0
BBX 5 5 2 7
BITMAP
38
C8
88
88
F8
ENDCHAR
STARTCHAR 00AB
ENCODING 171
SWIDTH 613 0
DWIDTH 9 0
BBX 7 7 1 0
BITMAP
02
26
6C
C8
C8
64
26
ENDCHAR
STARTCHAR 00AC
ENCODING 172
SWIDTH 613 0
DWIDTH 9 0
BBX 7 4 1 1
BITMAP
FE
FE
02
02
ENDCHAR
STARTCHAR 00AD
ENCODING 173
SWIDTH 613 0
DWIDTH 9 0
BBX 5 1 2 4
BITMAP
F8
ENDCHAR
STARTCHAR 00AE
ENCODING 174
SWIDTH 613 0
DWIDTH 9 0
BBX 9 12 0 0
BITMAP
1C00
2200
4100
9C80
9480
9480
9880
9480
9480
5300
4100
3E00
ENDCHAR
STARTCHAR 00AF
ENCODING 175
SWIDTH 613 0
DWIDTH 9 0
BBX 5 1 2 9
BITMAP
F8
ENDCHAR
STARTCHAR 00B0
ENCODING 176
SWIDTH 613 0
DWIDTH 9 0
BBX 3 4 3 8
BITMAP
40
A0
A0
E0
ENDCHAR
STARTCHAR 00B1
ENCODING 177
SWIDTH 613 0
DWIDTH 9 0
BBX 7 10 1 0
BITMAP
10
10
10
FE
10
10
10
10
00
FE
ENDCHAR
STARTCHAR 00B2
ENCODING 178
SWIDTH 613 0
DWIDTH 9 0
BBX 5 7 2 5
BITMAP
70
88
08
30
60
80
F8
ENDCHAR
STARTCHAR 00B3
ENCODING 179
SWIDTH 750 0
DWIDTH 11 0
BBX 6 7 3 5
BITMAP
F0
08
08
70
08
0C
F8
ENDCHAR
STARTCHAR 00B4
ENCODING 180
SWIDTH 613 0
DWIDTH 9 0
BBX 4 3 2 9
BITMAP
30
60
C0
ENDCHAR
STARTCHAR 00B5
ENCODING 181
SWIDTH 613 0
DWIDTH 9 0
BBX 7 11 1 -3
BITMAP
82
82
82
82
82
86
CA
FA
80
80
80
ENDCHAR
STARTCHAR 00B6
ENCODING 182
SWIDTH 613 0
DWIDTH 9 0
BBX 8 14 1 -3
BITMAP
7F
F4
F4
F4
F4
74
14
14
14
14
14
14
14
14
ENDCHAR
STARTCHAR 00B7
ENCODING 183
SWIDTH 613 0
DWIDTH 9 0
BBX 3 2 3 3
BITMAP
E0
E0
ENDCHAR
STARTCHAR 00B8
ENCODING 184
SWIDTH 613 0
DWIDTH 9 0
BBX 3 3 3 -3
BITMAP
40
60
E0
ENDCHAR
STARTCHAR 00B9
ENCODING 185
SWIDTH 613 0
DWIDTH 9 0
BBX 5 7 2 5
BITMAP
20
E0
20
20
20
20
F8
ENDCHAR
STARTCHAR 00BA
ENCODING 186
SWIDTH 613 0
DWIDTH 9 0
BBX 7 6 1 6
BITMAP
38
44
82
C6
6C
10
ENDCHAR
STARTCHAR 00BB
ENCODING 187
SWIDTH 613 0
DWIDTH 9 0
BBX 7 7 1 0
BITMAP
80
C8
6C
26
26
4C
D8
ENDCHAR
STARTCHAR 00BC
ENCODING 188
SWIDTH 613 0
DWIDTH 9 0
BBX 9 12 0 0
BITMAP
0080
E100
A300
2200
2400
FC00
0900
1300
3500
2900
4F80
4100
ENDCHAR
STARTCHAR 00BD
ENCODING 189
SWIDTH 613 0
DWIDTH 9 0
BBX 9 12 0 0
BITMAP
0080
E100
A300
2200
2400
FC00
0B00
1580
3180
2300
4400
4780
ENDCHAR
STARTCHAR 00BE
ENCODING 190
SWIDTH 613 0
DWIDTH 9 0
BBX 8 12 1 0
BITMAP
01
E2
26
C4
28
F8
12
26
6A
52
9F
82
ENDCHAR
STARTCHAR 00BF
ENCODING 191
SWIDTH 613 0
DWIDTH 9 0
BBX 6 12 1 -4
BITMAP
18
08
00
08
08
10
30
60
C0
C0
7C
38
ENDCHAR
STARTCHAR 00C0
ENCODING 192
SWIDTH 613 0
DWIDTH 9 0
BBX 9 15 0 0
BITMAP
1000
0800
0400
0000
1C00
1C00
1400
1400
3600
2200
2200
7F00
4300
4100
C180
ENDCHAR
STARTCHAR 00C1
ENCODING 193
SWIDTH 613 0
DWIDTH 9 0
BBX 9 15 0 0
BITMAP
0C00
1800
3000
0000
1C00
1C00
1400
1400
3600
2200
2200
7F00
4300
4100
C180
ENDCHAR
STARTCHAR 00C2
ENCODING 194
SWIDTH 613 0
DWIDTH 9 0
BBX 9 15 0 0
BITMAP
0800
1400
3600
0000
1C00
1C00
1400
1400
3600
2200
2200
7F00
4300
4100
C180
ENDCHAR
STARTCHAR 00C3
ENCODING 195
SWIDTH 613 0
DWIDTH 9 0
BBX 9 14 0 0
BITMAP
3A00
2400
0000
1C00
1C00
1400
1400
3600
2200
2200
7F00
4300
4100
C180
ENDCHAR
STARTCHAR 00C4
ENCODING 196
SWIDTH 613 0
DWIDTH 9 0
BBX 9 14 0 0
BITMAP
3600
0000
0000
1C00
1C00
1400
1400
3600
2200
2200
7F00
4300
4100
C180
ENDCHAR
STARTCHAR 00C5
ENCODING 197
SWIDTH 613 0
DWIDTH 9 0
BBX 9 14 0 0
BITMAP
0800
1400
0800
1C00
1C00
1400
1400
3600
2200
2200
7F00
4300
4100
C180
ENDCHAR
STARTCHAR 00C6
ENCODING 198
SWIDTH 613 0
DWIDTH 9 0
BBX 9 11 0 0
BITMAP
0F80
0C00
1C00
1400
1400
3780
2400
7C00
4400
4400
8780
ENDCHAR
STARTCHAR 00C7
ENCODING 199
SWIDTH 613 0
DWIDTH 9 0
BBX 7 15 1 -3
BITMAP
1C
36
60
C0
C0
80
80
80
C0
C0
60
3E
10
08
18
ENDCHAR
STARTCHAR 00C8
ENCODING 200
SWIDTH 613 0
DWIDTH 9 0
BBX 7 15 1 0
BITMAP
20
10
08
00
FE
C0
C0
C0
C0
FC
C0
C0
C0
C0
FE
ENDCHAR
STARTCHAR 00C9
ENCODING 201
SWIDTH 613 0
DWIDTH 9 0
BBX 7 15 1 0
BITMAP
18
30
60
00
FE
C0
C0
C0
C0
FC
C0
C0
C0
C0
FE
ENDCHAR
STARTCHAR 00CA
ENCODING 202
SWIDTH 613 0
DWIDTH 9 0
BBX 7 15 1 0
BITMAP
10
28
6C
00
FE
C0
C0
C0
C0
FC
C0
C0
C0
C0
FE
ENDCHAR
STARTCHAR 00CB
ENCODING 203
SWIDTH 613 0
DWIDTH 9 0
BBX 7 14 1 0
BITMAP
6C
00
00
FE
C0
C0
C0
C0
FC
C0
C0
C0
C0
FE
ENDCHAR
STARTCHAR 00CC
ENCODING 204
SWIDTH 613 0
DWIDTH 9 0
BBX 7 15 1 0
BITMAP
20
10
08
00
FE
10
10
10
10
10
10
10
10
10
FE
ENDCHAR
STARTCHAR 00CD
ENCODING 205
SWIDTH 613 0
DWIDTH 9 0
BBX 7 15 1 0
BITMAP
18
30
60
00
FE
10
10
10
10
10
10
10
10
10
FE
ENDCHAR
STARTCHAR 00CE
ENCODING 206
SWIDTH 613 0
DWIDTH 9 0
BBX 7 15 1 0
BITMAP
10
28
6C
00
FE
10
10
10
10
10
10
10
10
10
FE
ENDCHAR
STARTCHAR 00CF
ENCODING 207
SWIDTH 613 0
DWIDTH 9 0
BBX 7 14 1 0
BITMAP
6C
00
00
FE
10
10
10
10
10
10
10
10
10
FE
ENDCHAR
STARTCHAR 00D0
ENCODING 208
SWIDTH 613 0
DWIDTH 9 0
BBX 8 11 0 0
BITMAP
7E
63
61
61
61
F1
61
61
63
66
7C
ENDCHAR
STARTCHAR 00D1
ENCODING 209
SWIDTH 613 0
DWIDTH 9 0
BBX 7 14 1 0
BITMAP
74
48
00
C2
C2
E2
A2
B2
92
9A
8A
8E
86
86
ENDCHAR
STARTCHAR 00D2
ENCODING 210
SWIDTH 613 0
DWIDTH 9 0
BBX 7 15 1 0
BITMAP
20
10
08
38
6C
C6
82
82
82
82
82
82
82
C6
7C
ENDCHAR
STARTCHAR 00D3
ENCODING 211
SWIDTH 613 0
DWIDTH 9 0
BBX 7 15 1 0
BITMAP
18
30
60
38
6C
C6
82
82
82
82
82
82
82
C6
7C
ENDCHAR
STARTCHAR 00D4
ENCODING 212
SWIDTH 613 0
DWIDTH 9 0
BBX 7 15 1 0
BITMAP
10
28
6C
38
6C
C6
82
82
82
82
82
82
82
C6
7C
ENDCHAR
STARTCHAR 00D5
ENCODING 213
SWIDTH 613 0
DWIDTH 9 0
BBX 7 14 1 0
BITMAP
74
48
38
6C
C6
82
82
82
82
82
82
82
C6
7C
ENDCHAR
STARTCHAR 00D6
ENCODING 214
SWIDTH 613 0
DWIDTH 9 0
BBX 7 14 1 0
BITMAP
6C
00
38
6C
C6
82
82
82
82
82
82
82
C6
7C
ENDCHAR
STARTCHAR 00D7
ENCODING 215
SWIDTH 613 0
DWIDTH 9 0
BBX 7 8 1 0
BITMAP
82
C6
6C
38
38
6C
C6
82
ENDCHAR
STARTCHAR 00D8
ENCODING 216
SWIDTH 613 0
DWIDTH 9 0
BBX 7 13 1 -1
BITMAP
3A
6E
C6
86
8A
92
92
A2
A2
C2
C6
FC
80
ENDCHAR
STARTCHAR 00D9
ENCODING 217
SWIDTH 613 0
DWIDTH 9 0
BBX 7 15 1 0
BITMAP
20
10
08
00
82
82
82
82
82
82
82
82
82
C6
7C
ENDCHAR
STARTCHAR 00DA
ENCODING 218
SWIDTH 613 0
DWIDTH 9 0
BBX 7 15 1 0
BITMAP
18
30
60
00
82
82
82
82
82
82
82
82
82
C6
7C
ENDCHAR
STARTCHAR 00DB
ENCODING 219
SWIDTH 613 0
DWIDTH 9 0
BBX 7 15 1 0
BITMAP
10
28
6C
00
82
82
82
82
82
82
82
82
82
C6
7C
ENDCHAR
STARTCHAR 00DC
ENCODING 220
SWIDTH 613 0
DWIDTH 9 0
BBX 7 14 1 0
BITMAP
6C
00
00
82
82
82
82
82
82
82
82
82
C6
7C
ENDCHAR
STARTCHAR 00DD
ENCODING 221
SWIDTH 613 0
DWIDTH 9 0
BBX 7 15 1 0
BITMAP
18
30
60
00
C2
C6
6C
28
38
10
10
10
10
10
10
ENDCHAR
STARTCHAR 00DE
ENCODING 222
SWIDTH 613 0
DWIDTH 9 0
BBX 7 11 1 0
BITMAP
C0
C0
FC
C6
C2
C2
C6
CC
F8
C0
C0
ENDCHAR
STARTCHAR 00DF
ENCODING 223
SWIDTH 613 0
DWIDTH 9 0
BBX 7 12 1 0
BITMAP
78
CC
8C
88
90
B0
B8
8C
86
82
82
9E
ENDCHAR
STARTCHAR 00E0
ENCODING 224
SWIDTH 613 0
DWIDTH 9 0
BBX 7 12 1 0
BITMAP
20
10
08
00
3E
42
C2
82
82
86
CA
72
ENDCHAR
STARTCHAR 00E1
ENCODING 225
SWIDTH 613 0
DWIDTH 9 0
BBX 7 12 1 0
BITMAP
0C
18
30
00
3E
42
C2
82
82
86
CA
72
ENDCHAR
STARTCHAR 00E2
ENCODING 226
SWIDTH 613 0
DWIDTH 9 0
BBX 7 12 1 0
BITMAP
08
14
36
00
3E
42
C2
82
82
86
CA
72
ENDCHAR
STARTCHAR 00E3
ENCODING 227
SWIDTH 613 0
DWIDTH 9 0
BBX 7 11 1 0
BITMAP
74
48
00
3E
42
C2
82
82
86
CA
72
ENDCHAR
STARTCHAR 00E4
ENCODING 228
SWIDTH 613 0
DWIDTH 9 0
BBX 7 11 1 0
BITMAP
6C
00
00
3E
42
C2
82
82
86
CA
72
ENDCHAR
STARTCHAR 00E5
ENCODING 229
SWIDTH 613 0
DWIDTH 9 0
BBX 7 12 1 0
BITMAP
38
28
10
00
3E
42
C2
82
82
86
CA
72
ENDCHAR
STARTCHAR 00E6
ENCODING 230
SWIDTH 613 0
DWIDTH 9 0
BBX 9 8 0 0
BITMAP
3F00
4D00
4D80
4F80
CC00
4C00
5C00
7780
ENDCHAR
STARTCHAR 00E7
ENCODING 231
SWIDTH 613 0
DWIDTH 9 0
BBX 7 11 1 -3
BITMAP
3E
60
C0
C0
C0
C0
60
3E
10
08
18
ENDCHAR
STARTCHAR 00E8
ENCODING 232
SWIDTH 613 0
DWIDTH 9 0
BBX 7 12 1 0
BITMAP
10
08
04
00
7C
46
C2
FE
80
C0
42
3E
ENDCHAR
STARTCHAR 00E9
ENCODING 233
SWIDTH 613 0
DWIDTH 9 0
BBX 7 12 1 0
BITMAP
0C
18
30
00
7C
46
C2
FE
80
C0
42
3E
ENDCHAR
STARTCHAR 00EA
ENCODING 234
SWIDTH 613 0
DWIDTH 9 0
BBX 7 12 1 0
BITMAP
10
28
6C
00
7C
46
C2
FE
80
C0
42
3E
ENDCHAR
STARTCHAR 00EB
ENCODING 235
SWIDTH 613 0
DWIDTH 9 0
BBX 7 11 1 0
BITMAP
6C
00
00
7C
46
C2
FE
80
C0
42
3E
ENDCHAR
STARTCHAR 00EC
ENCODING 236
SWIDTH 613 0
DWIDTH 9 0
BBX 6 12 1 0
BITMAP
20
10
08
00
F0
30
30
30
30
30
30
3C
ENDCHAR
STARTCHAR 00ED
ENCODING 237
SWIDTH 613 0
DWIDTH 9 0
BBX 6 12 1 0
BITMAP
18
30
60
00
F0
30
30
30
30
30
30
3C
ENDCHAR
STARTCHAR 00EE
ENCODING 238
SWIDTH 613 0
DWIDTH 9 0
BBX 6 12 1 0
BITMAP
10
28
6C
00
F0
30
30
30
30
30
30
3C
ENDCHAR
STARTCHAR 00EF
ENCODING 239
SWIDTH 613 0
DWIDTH 9 0
BBX 6 11 1 0
BITMAP
6C
00
00
F0
30
30
30
30
30
30
3C
ENDCHAR
STARTCHAR 00F0
ENCODING 240
SWIDTH 613 0
DWIDTH 9 0
BBX 7 12 1 1
BITMAP
E8
38
6C
04
3E
C6
82
82
82
82
C6
7C
ENDCHAR
STARTCHAR 00F1
ENCODING 241
SWIDTH 613 0
DWIDTH 9 0
BBX 7 11 1 0
BITMAP
74
48
00
FC
E6
C2
C2
C2
C2
C2
C2
ENDCHAR
STARTCHAR 00F2
ENCODING 242
SWIDTH 613 0
DWIDTH 9 0
BBX 7 12 1 0
BITMAP
20
10
08
00
7C
C6
82
82
82
82
C6
7C
ENDCHAR
STARTCHAR 00F3
ENCODING 243
SWIDTH 613 0
DWIDTH 9 0
BBX 7 12 1 0
BITMAP
18
30
60
00
7C
C6
82
82
82
82
C6
7C
ENDCHAR
STARTCHAR 00F4
ENCODING 244
SWIDTH 613 0
DWIDTH 9 0
BBX 7 12 1 0
BITMAP
10
28
6C
00
7C
C6
82
82
82
82
C6
7C
ENDCHAR
STARTCHAR 00F5
ENCODING 245
SWIDTH 613 0
DWIDTH 9 0
BBX 7 11 1 0
BITMAP
74
48
00
7C
C6
82
82
82
82
C6
7C
ENDCHAR
STARTCHAR 00F6
ENCODING 246
SWIDTH 613 0
DWIDTH 9 0
BBX 7 11 1 0
BITMAP
6C
00
00
7C
C6
82
82
82
82
C6
7C
ENDCHAR
STARTCHAR 00F7
ENCODING 247
SWIDTH 613 0
DWIDTH 9 0
BBX 7 8 1 0
BITMAP
10
38
00
FE
FE
00
38
10
ENDCHAR
STARTCHAR 00F8
ENCODING 248
SWIDTH 613 0
DWIDTH 9 0
BBX 7 10 1 -1
BITMAP
02
7C
C6
8A
92
92
A2
C6
FC
80
ENDCHAR
STARTCHAR 00F9
ENCODING 249
SWIDTH 613 0
DWIDTH 9 0
BBX 7 12 1 0
BITMAP
20
10
08
00
86
86
86
86
86
86
CE
76
ENDCHAR
STARTCHAR 00FA
ENCODING 250
SWIDTH 613 0
DWIDTH 9 0
BBX 7 12 1 0
BITMAP
0C
18
30
00
86
86
86
86
86
86
CE
76
ENDCHAR
STARTCHAR 00FB
ENCODING 251
SWIDTH 613 0
DWIDTH 9 0
BBX 7 12 1 0
BITMAP
10
28
6C
00
86
86
86
86
86
86
CE
76
ENDCHAR
STARTCHAR 00FC
ENCODING 252
SWIDTH 613 0
DWIDTH 9 0
BBX 7 11 1 0
BITMAP
6C
00
00
86
86
86
86
86
86
CE
76
ENDCHAR
STARTCHAR 00FD
ENCODING 253
SWIDTH 613 0
DWIDTH 9 0
BBX 9 15 0 -3
BITMAP
0600
0C00
1800
0000
4180
6100
2300
3200
1200
1E00
0C00
0C00
0800
1800
F000
ENDCHAR
STARTCHAR 00FE
ENCODING 254
SWIDTH 613 0
DWIDTH 9 0
BBX 7 14 1 -3
BITMAP
80
80
80
BC
E6
C2
82
82
86
8C
F8
80
80
80
ENDCHAR
STARTCHAR 00FF
ENCODING 255
SWIDTH 613 0
DWIDTH 9 0
BBX 9 14 0 -3
BITMAP
3600
0000
0000
4180
6100
2300
3200
1200
1E00
0C00
0C00
0800
1800
F000
ENDCHAR
STARTCHAR 0100
ENCODING 256
SWIDTH 613 0
DWIDTH 9 0
BBX 9 13 0 0
BITMAP
3E00
0000
1C00
1C00
1400
1400
3600
2200
2200
7F00
4300
4100
C180
ENDCHAR
STARTCHAR 0101
ENCODING 257
SWIDTH 613 0
DWIDTH 9 0
BBX 7 10 1 0
BITMAP
7C
00
3E
42
C2
82
82
86
CA
72
ENDCHAR
STARTCHAR 0102
ENCODING 258
SWIDTH 613 0
DWIDTH 9 0
BBX 9 15 0 0
BITMAP
2200
1400
0800
0000
1C00
1C00
1400
1400
3600
2200
2200
7F00
4300
4100
C180
ENDCHAR
STARTCHAR 0103
ENCODING 259
SWIDTH 613 0
DWIDTH 9 0
BBX 7 12 1 0
BITMAP
44
28
10
00
3E
42
C2
82
82
86
CA
72
ENDCHAR
STARTCHAR 0104
ENCODING 260
SWIDTH 613 0
DWIDTH 9 0
BBX 9 14 0 -3
BITMAP
1C00
1C00
1400
1400
3600
2200
2200
7F00
4300
4100
C180
0100
0200
0380
ENDCHAR
STARTCHAR 0105
ENCODING 261
SWIDTH 613 0
DWIDTH 9 0
BBX 7 11 1 -3
BITMAP
3E
42
C2
82
82
86
CA
72
04
08
0E
ENDCHAR
STARTCHAR 0106
ENCODING 262
SWIDTH 613 0
DWIDTH 9 0
BBX 7 15 1 0
BITMAP
06
0C
18
1C
36
60
C0
C0
80
80
80
C0
C0
60
3E
ENDCHAR
STARTCHAR 0107
ENCODING 263
SWIDTH 613 0
DWIDTH 9 0
BBX 7 12 1 0
BITMAP
0C
18
30
00
3E
60
C0
C0
C0
C0
60
3E
ENDCHAR
STARTCHAR 0108
ENCODING 264
SWIDTH 613 0
DWIDTH 9 0
BBX 7 15 1 0
BITMAP
08
14
36
1C
36
60
C0
C0
80
80
80
C0
C0
60
3E
ENDCHAR
STARTCHAR 0109
ENCODING 265
SWIDTH 613 0
DWIDTH 9 0
BBX 7 12 1 0
BITMAP
10
28
6C
00
3E
60
C0
C0
C0
C0
60
3E
ENDCHAR
STARTCHAR 010A
ENCODING 266
SWIDTH 613 0
DWIDTH 9 0
BBX 7 15 1 0
BITMAP
08
1C
08
1C
36
60
C0
C0
80
80
80
C0
C0
60
3E
ENDCHAR
STARTCHAR 010B
ENCODING 267
SWIDTH 613 0
DWIDTH 9 0
BBX 7 12 1 0
BITMAP
10
38
10
00
3E
60
C0
C0
C0
C0
60
3E
ENDCHAR
STARTCHAR 010C
ENCODING 268
SWIDTH 613 0
DWIDTH 9 0
BBX 7 15 1 0
BITMAP
14
1C
08
1C
36
60
C0
C0
80
80
80
C0
C0
60
3E
ENDCHAR
STARTCHAR 010D
ENCODING 269
SWIDTH 613 0
DWIDTH 9 0
BBX 7 12 1 0
BITMAP
14
1C
08
00
3E
60
C0
C0
C0
C0
60
3E
ENDCHAR
STARTCHAR 010E
ENCODING 270
SWIDTH 613 0
DWIDTH 9 0
BBX 7 15 1 0
BITMAP
28
38
10
00
FC
C6
C2
C2
C2
C2
C2
C2
C6
CC
F8
ENDCHAR
STARTCHAR 010F
ENCODING 271
SWIDTH 613 0
DWIDTH 9 0
BBX 11 15 1 0
BITMAP
00E0
00E0
0020
0240
02C0
0200
0200
3E00
4200
C200
8200
8200
8600
CA00
7200
ENDCHAR
STARTCHAR 0110
ENCODING 272
SWIDTH 613 0
DWIDTH 9 0
BBX 8 11 0 0
BITMAP
7E
63
61
61
61
F1
61
61
63
66
7C
ENDCHAR
STARTCHAR 0111
ENCODING 273
SWIDTH 613 0
DWIDTH 9 0
BBX 8 12 1 0
BITMAP
02
02
0F
02
3E
42
C2
82
82
86
CA
72
ENDCHAR
STARTCHAR 0112
ENCODING 274
SWIDTH 613 0
DWIDTH 9 0
BBX 7 13 1 0
BITMAP
7C
00
FE
C0
C0
C0
C0
FC
C0
C0
C0
C0
FE
ENDCHAR
STARTCHAR 0113
ENCODING 275
SWIDTH 613 0
DWIDTH 9 0
BBX 7 10 1 0
BITMAP
7C
00
7C
46
C2
FE
80
C0
42
3E
ENDCHAR
STARTCHAR 0114
ENCODING 276
SWIDTH 613 0
DWIDTH 9 0
BBX 7 15 1 0
BITMAP
44
28
10
00
FE
C0
C0
C0
C0
FC
C0
C0
C0
C0
FE
ENDCHAR
STARTCHAR 0115
ENCODING 277
SWIDTH 613 0
DWIDTH 9 0
BBX 7 12 1 0
BITMAP
44
28
10
00
7C
46
C2
FE
80
C0
42
3E
ENDCHAR
STARTCHAR 0116
ENCODING 278
SWIDTH 613 0
DWIDTH 9 0
BBX 7 15 1 0
BITMAP
10
38
10
00
FE
C0
C0
C0
C0
FC
C0
C0
C0
C0
FE
ENDCHAR
STARTCHAR 0117
ENCODING 279
SWIDTH 613 0
DWIDTH 9 0
BBX 7 12 1 0
BITMAP
10
38
10
00
7C
46
C2
FE
80
C0
42
3E
ENDCHAR
STARTCHAR 0118
ENCODING 280
SWIDTH 613 0
DWIDTH 9 0
BBX 7 14 1 -3
BITMAP
FE
C0
C0
C0
C0
FC
C0
C0
C0
C0
FE
10
20
38
ENDCHAR
STARTCHAR 0119
ENCODING 281
SWIDTH 613 0
DWIDTH 9 0
BBX 7 11 1 -3
BITMAP
7C
46
C2
FE
80
C0
42
3E
10
20
38
ENDCHAR
STARTCHAR 011A
ENCODING 282
SWIDTH 613 0
DWIDTH 9 0
BBX 7 15 1 0
BITMAP
28
38
10
00
FE
C0
C0
C0
C0
FC
C0
C0
C0
C0
FE
ENDCHAR
STARTCHAR 011B
ENCODING 283
SWIDTH 613 0
DWIDTH 9 0
BBX 7 12 1 0
BITMAP
28
38
10
00
7C
46
C2
FE
80
C0
42
3E
ENDCHAR
STARTCHAR 011C
ENCODING 284
SWIDTH 613 0
DWIDTH 9 0
BBX 7 15 1 0
BITMAP
08
14
36
1C
36
60
C0
C0
80
8E
8E
C6
C6
66
3E
ENDCHAR
STARTCHAR 011D
ENCODING 285
SWIDTH 613 0
DWIDTH 9 0
BBX 7 15 1 -3
BITMAP
10
28
6C
00
3E
42
C2
82
82
86
CA
72
06
06
FC
ENDCHAR
STARTCHAR 011E
ENCODING 286
SWIDTH 613 0
DWIDTH 9 0
BBX 7 15 1 0
BITMAP
22
14
08
1C
36
60
C0
C0
80
8E
8E
C6
C6
66
3E
ENDCHAR
STARTCHAR 011F
ENCODING 287
SWIDTH 613 0
DWIDTH 9 0
BBX 7 15 1 -3
BITMAP
44
28
10
00
3E
42
C2
82
82
86
CA
72
02
06
FC
ENDCHAR
STARTCHAR 0120
ENCODING 288
SWIDTH 613 0
DWIDTH 9 0
BBX 7 15 1 0
BITMAP
08
1C
08
1C
36
60
C0
C0
80
8E
8E
C6
C6
66
3E
ENDCHAR
STARTCHAR 0121
ENCODING 289
SWIDTH 613 0
DWIDTH 9 0
BBX 7 15 1 -3
BITMAP
10
38
10
00
3E
42
C2
82
82
86
CA
72
06
06
FC
ENDCHAR
STARTCHAR 0122
ENCODING 290
SWIDTH 613 0
DWIDTH 9 0
BBX 7 18 1 -6
BITMAP
1C
36
60
C0
C0
80
8E
8E
C6
C6
66
3E
00
1C
1C
04
08
18
ENDCHAR
STARTCHAR 0123
ENCODING 291
SWIDTH 613 0
DWIDTH 9 0
BBX 7 15 1 -3
BITMAP
0C
18
30
00
3E
42
C2
82
82
86
CA
72
06
06
FC
ENDCHAR
STARTCHAR 0124
ENCODING 292
SWIDTH 613 0
DWIDTH 9 0
BBX 7 15 1 0
BITMAP
10
28
6C
00
82
82
82
82
82
FE
82
82
82
82
82
ENDCHAR
STARTCHAR 0125
ENCODING 293
SWIDTH 613 0
DWIDTH 9 0
BBX 7 15 1 0
BITMAP
20
50
D8
C0
C0
C0
C0
FC
E6
C2
C2
C2
C2
C2
C2
ENDCHAR
STARTCHAR 0126
ENCODING 294
SWIDTH 613 0
DWIDTH 9 0
BBX 7 11 1 0
BITMAP
82
82
FE
82
82
FE
82
82
82
82
82
ENDCHAR
STARTCHAR 0127
ENCODING 295
SWIDTH 613 0
DWIDTH 9 0
BBX 8 12 0 0
BITMAP
60
60
F8
60
7E
73
61
61
61
61
61
61
ENDCHAR
STARTCHAR 0128
ENCODING 296
SWIDTH 613 0
DWIDTH 9 0
BBX 7 14 1 0
BITMAP
74
48
00
FE
10
10
10
10
10
10
10
10
10
FE
ENDCHAR
STARTCHAR 0129
ENCODING 297
SWIDTH 613 0
DWIDTH 9 0
BBX 6 11 1 0
BITMAP
74
48
00
F0
30
30
30
30
30
30
3C
ENDCHAR
STARTCHAR 012A
ENCODING 298
SWIDTH 613 0
DWIDTH 9 0
BBX 7 13 1 0
BITMAP
7C
00
FE
10
10
10
10
10
10
10
10
10
FE
ENDCHAR
STARTCHAR 012B
ENCODING 299
SWIDTH 613 0
DWIDTH 9 0
BBX 6 10 1 0
BITMAP
7C
00
F0
30
30
30
30
30
30
3C
ENDCHAR
STARTCHAR 012E
ENCODING 302
SWIDTH 613 0
DWIDTH 9 0
BBX 7 14 1 -3
BITMAP
FE
10
10
10
10
10
10
10
10
10
FE
10
20
38
ENDCHAR
STARTCHAR 012F
ENCODING 303
SWIDTH 613 0
DWIDTH 9 0
BBX 6 15 1 -3
BITMAP
30
30
00
00
F0
30
30
30
30
30
30
3C
10
20
38
ENDCHAR
STARTCHAR 0130
ENCODING 304
SWIDTH 613 0
DWIDTH 9 0
BBX 7 15 1 0
BITMAP
10
38
10
00
FE
10
10
10
10
10
10
10
10
10
FE
ENDCHAR
STARTCHAR 0131
ENCODING 305
SWIDTH 613 0
DWIDTH 9 0
BBX 6 8 1 0
BITMAP
F0
30
30
30
30
30
30
3C
ENDCHAR
STARTCHAR 0136
ENCODING 310
SWIDTH 613 0
DWIDTH 9 0
BBX 8 17 1 -6
BITMAP
C6
CC
C8
D0
F0
F0
D0
D8
CC
C6
C3
00
1C
1C
04
08
18
ENDCHAR
STARTCHAR 0137
ENCODING 311
SWIDTH 613 0
DWIDTH 9 0
BBX 6 18 2 -6
BITMAP
80
80
80
80
8C
98
B0
E0
B0
90
98
8C
00
38
38
08
10
30
ENDCHAR
STARTCHAR 0139
ENCODING 313
SWIDTH 613 0
DWIDTH 9 0
BBX 7 15 1 0
BITMAP
30
60
C0
00
40
40
40
40
40
40
40
40
40
40
7E
ENDCHAR
STARTCHAR 013A
ENCODING 314
SWIDTH 613 0
DWIDTH 9 0
BBX 6 15 1 0
BITMAP
18
30
60
F0
30
30
30
30
30
30
30
30
30
30
3C
ENDCHAR
STARTCHAR 013B
ENCODING 315
SWIDTH 613 0
DWIDTH 9 0
BBX 6 17 2 -6
BITMAP
80
80
80
80
80
80
80
80
80
80
FC
00
70
70
10
20
60
ENDCHAR
STARTCHAR 013C
ENCODING 316
SWIDTH 613 0
DWIDTH 9 0
BBX 6 18 1 -6
BITMAP
F0
30
30
30
30
30
30
30
30
30
30
3C
00
38
38
08
10
30
ENDCHAR
STARTCHAR 013D
ENCODING 317
SWIDTH 613 0
DWIDTH 9 0
BBX 6 11 2 0
BITMAP
9C
9C
84
88
98
80
80
80
80
80
FC
ENDCHAR
STARTCHAR 013E
ENCODING 318
SWIDTH 613 0
DWIDTH 9 0
BBX 7 12 1 0
BITMAP
FE
3E
32
34
3C
30
30
30
30
30
30
3C
ENDCHAR
STARTCHAR 013F
ENCODING 319
SWIDTH 613 0
DWIDTH 9 0
BBX 6 11 2 0
BITMAP
80
80
80
90
B8
90
80
80
80
80
FC
ENDCHAR
STARTCHAR 0140
ENCODING 320
SWIDTH 613 0
DWIDTH 9 0
BBX 7 12 1 0
BITMAP
F0
30
30
30
30
34
3E
34
30
30
30
3C
ENDCHAR
STARTCHAR 0141
ENCODING 321
SWIDTH 613 0
DWIDTH 9 0
BBX 8 11 0 0
BITMAP
20
20
20
20
38
E0
20
20
20
20
3F
ENDCHAR
STARTCHAR 0142
ENCODING 322
SWIDTH 613 0
DWIDTH 9 0
BBX 6 12 1 0
BITMAP
F0
30
30
30
34
3C
F0
B0
30
30
30
3C
ENDCHAR
STARTCHAR 0143
ENCODING 323
SWIDTH 613 0
DWIDTH 9 0
BBX 7 15 1 0
BITMAP
18
30
60
00
C2
C2
E2
A2
B2
92
9A
8A
8E
86
86
ENDCHAR
STARTCHAR 0144
ENCODING 324
SWIDTH 613 0
DWIDTH 9 0
BBX 7 12 1 0
BITMAP
18
30
60
00
FC
E6
C2
C2
C2
C2
C2
C2
ENDCHAR
STARTCHAR 0145
ENCODING 325
SWIDTH 613 0
DWIDTH 9 0
BBX 7 17 1 -6
BITMAP
C2
C2
E2
A2
B2
92
9A
8A
8E
86
86
00
38
38
08
10
30
ENDCHAR
STARTCHAR 0146
ENCODING 326
SWIDTH 613 0
DWIDTH 9 0
BBX 7 14 1 -6
BITMAP
FC
E6
C2
C2
C2
C2
C2
C2
00
38
38
08
10
30
ENDCHAR
STARTCHAR 0147
ENCODING 327
SWIDTH 613 0
DWIDTH 9 0
BBX 7 15 1 0
BITMAP
28
38
10
00
C2
C2
E2
A2
B2
92
9A
8A
8E
86
86
ENDCHAR
STARTCHAR 0148
ENCODING 328
SWIDTH 613 0
DWIDTH 9 0
BBX 7 12 1 0
BITMAP
28
38
10
00
FC
E6
C2
C2
C2
C2
C2
C2
ENDCHAR
STARTCHAR 014C
ENCODING 332
SWIDTH 613 0
DWIDTH 9 0
BBX 7 13 1 0
BITMAP
7C
38
6C
C6
82
82
82
82
82
82
82
C6
7C
ENDCHAR
STARTCHAR 014D
ENCODING 333
SWIDTH 613 0
DWIDTH 9 0
BBX 7 10 1 0
BITMAP
7C
00
7C
C6
82
82
82
82
C6
7C
ENDCHAR
STARTCHAR 014E
ENCODING 334
SWIDTH 613 0
DWIDTH 9 0
BBX 7 15 1 0
BITMAP
44
28
10
38
6C
C6
82
82
82
82
82
82
82
C6
7C
ENDCHAR
STARTCHAR 014F
ENCODING 335
SWIDTH 613 0
DWIDTH 9 0
BBX 7 12 1 0
BITMAP
44
28
10
00
7C
C6
82
82
82
82
C6
7C
ENDCHAR
STARTCHAR 0150
ENCODING 336
SWIDTH 613 0
DWIDTH 9 0
BBX 7 15 1 0
BITMAP
14
28
28
38
6C
C6
82
82
82
82
82
82
82
C6
7C
ENDCHAR
STARTCHAR 0151
ENCODING 337
SWIDTH 613 0
DWIDTH 9 0
BBX 7 12 1 0
BITMAP
14
28
28
00
7C
C6
82
82
82
82
C6
7C
ENDCHAR
STARTCHAR 0152
ENCODING 338
SWIDTH 613 0
DWIDTH 9 0
BBX 9 12 0 0
BITMAP
1000
7F80
4400
4400
C400
C400
C700
C400
C400
4400
6C00
3F80
ENDCHAR
STARTCHAR 0153
ENCODING 339
SWIDTH 613 0
DWIDTH 9 0
BBX 9 8 0 0
BITMAP
7F00
4D00
4D00
CF00
4C00
4C00
4C00
7780
ENDCHAR
STARTCHAR 0154
ENCODING 340
SWIDTH 613 0
DWIDTH 9 0
BBX 8 15 1 0
BITMAP
0C
18
30
00
FC
C6
C6
C6
CC
F8
D8
CC
C4
C6
C3
ENDCHAR
STARTCHAR 0155
ENCODING 341
SWIDTH 613 0
DWIDTH 9 0
BBX 6 12 2 0
BITMAP
18
30
60
00
BC
E4
C4
80
80
80
80
80
ENDCHAR
STARTCHAR 0156
ENCODING 342
SWIDTH 613 0
DWIDTH 9 0
BBX 8 17 1 -6
BITMAP
FC
C6
C6
C6
CC
F8
D8
CC
C4
C6
C3
00
38
38
08
10
30
ENDCHAR
STARTCHAR 0157
ENCODING 343
SWIDTH 613 0
DWIDTH 9 0
BBX 6 14 2 -6
BITMAP
BC
E4
C4
80
80
80
80
80
00
70
70
10
20
60
ENDCHAR
STARTCHAR 0158
ENCODING 344
SWIDTH 613 0
DWIDTH 9 0
BBX 8 15 1 0
BITMAP
28
38
10
00
FC
C6
C6
C6
CC
F8
D8
CC
C4
C6
C3
ENDCHAR
STARTCHAR 0159
ENCODING 345
SWIDTH 613 0
DWIDTH 9 0
BBX 6 12 2 0
BITMAP
50
70
20
00
BC
E4
C4
80
80
80
80
80
ENDCHAR
STARTCHAR 015A
ENCODING 346
SWIDTH 613 0
DWIDTH 9 0
BBX 7 15 1 0
BITMAP
18
30
60
3C
64
C0
C0
40
70
1C
0E
06
02
06
FC
ENDCHAR
STARTCHAR 015B
ENCODING 347
SWIDTH 613 0
DWIDTH 9 0
BBX 7 12 1 0
BITMAP
18
30
60
00
7C
C0
40
78
1C
06
86
FC
ENDCHAR
STARTCHAR 015C
ENCODING 348
SWIDTH 613 0
DWIDTH 9 0
BBX 7 15 1 0
BITMAP
10
28
6C
3C
64
C0
C0
40
70
1C
0E
06
02
06
FC
ENDCHAR
STARTCHAR 015D
ENCODING 349
SWIDTH 613 0
DWIDTH 9 0
BBX 7 12 1 0
BITMAP
10
28
6C
00
7C
C0
40
78
1C
06
86
FC
ENDCHAR
STARTCHAR 015E
ENCODING 350
SWIDTH 613 0
DWIDTH 9 0
BBX 7 18 1 -6
BITMAP
3C
64
C0
C0
40
70
1C
0E
06
02
06
FC
00
38
38
08
10
30
ENDCHAR
STARTCHAR 015F
ENCODING 351
SWIDTH 613 0
DWIDTH 9 0
BBX 7 14 1 -6
BITMAP
7C
C0
40
78
1C
06
86
FC
00
38
38
08
10
30
ENDCHAR
STARTCHAR 0160
ENCODING 352
SWIDTH 613 0
DWIDTH 9 0
BBX 7 15 1 0
BITMAP
28
38
10
3C
64
C0
C0
40
70
1C
0E
06
02
06
FC
ENDCHAR
STARTCHAR 0161
ENCODING 353
SWIDTH 613 0
DWIDTH 9 0
BBX 7 12 1 0
BITMAP
28
38
10
00
7C
C0
40
78
1C
06
86
FC
ENDCHAR
STARTCHAR 0162
ENCODING 354
SWIDTH 613 0
DWIDTH 9 0
BBX 9 17 0 -6
BITMAP
FF80
0800
0800
0800
0800
0800
0800
0800
0800
0800
0800
0000
1C00
1C00
0400
0800
1800
ENDCHAR
STARTCHAR 0163
ENCODING 355
SWIDTH 613 0
DWIDTH 9 0
BBX 7 17 1 -6
BITMAP
20
20
20
3E
FE
20
20
20
20
20
1E
00
38
38
08
10
30
ENDCHAR
STARTCHAR 0164
ENCODING 356
SWIDTH 613 0
DWIDTH 9 0
BBX 9 15 0 0
BITMAP
1400
1C00
0800
0000
FF80
0800
0800
0800
0800
0800
0800
0800
0800
0800
0800
ENDCHAR
STARTCHAR 0165
ENCODING 357
SWIDTH 613 0
DWIDTH 9 0
BBX 10 13 1 0
BITMAP
01C0
01C0
2040
2080
2180
3E00
FE00
2000
2000
2000
2000
2000
1E00
ENDCHAR
STARTCHAR 0166
ENCODING 358
SWIDTH 613 0
DWIDTH 9 0
BBX 9 11 0 0
BITMAP
FF80
0800
0800
0800
0800
3E00
0800
0800
0800
0800
0800
ENDCHAR
STARTCHAR 0167
ENCODING 359
SWIDTH 613 0
DWIDTH 9 0
BBX 7 11 1 0
BITMAP
20
20
20
3E
FE
20
7C
20
20
20
1E
ENDCHAR
STARTCHAR 0168
ENCODING 360
SWIDTH 613 0
DWIDTH 9 0
BBX 7 14 1 0
BITMAP
74
48
00
82
82
82
82
82
82
82
82
82
C6
7C
ENDCHAR
STARTCHAR 0169
ENCODING 361
SWIDTH 613 0
DWIDTH 9 0
BBX 7 11 1 0
BITMAP
74
48
00
86
86
86
86
86
86
CE
76
ENDCHAR
STARTCHAR 016A
ENCODING 362
SWIDTH 613 0
DWIDTH 9 0
BBX 7 13 1 0
BITMAP
7C
00
82
82
82
82
82
82
82
82
82
C6
7C
ENDCHAR
STARTCHAR 016B
ENCODING 363
SWIDTH 613 0
DWIDTH 9 0
BBX 7 10 1 0
BITMAP
7C
00
86
86
86
86
86
86
CE
76
ENDCHAR
STARTCHAR 016C
ENCODING 364
SWIDTH 613 0
DWIDTH 9 0
BBX 7 15 1 0
BITMAP
44
28
10
00
82
82
82
82
82
82
82
82
82
C6
7C
ENDCHAR
STARTCHAR 016D
ENCODING 365
SWIDTH 613 0
DWIDTH 9 0
BBX 7 12 1 0
BITMAP
44
28
10
00
86
86
86
86
86
86
CE
76
ENDCHAR
STARTCHAR 016E
ENCODING 366
SWIDTH 613 0
DWIDTH 9 0
BBX 7 15 1 0
BITMAP
38
28
10
00
82
82
82
82
82
82
82
82
82
C6
7C
ENDCHAR
STARTCHAR 016F
ENCODING 367
SWIDTH 613 0
DWIDTH 9 0
BBX 7 12 1 0
BITMAP
38
28
10
00
86
86
86
86
86
86
CE
76
ENDCHAR
STARTCHAR 0170
ENCODING 368
SWIDTH 613 0
DWIDTH 9 0
BBX 7 15 1 0
BITMAP
14
28
28
00
82
82
82
82
82
82
82
82
82
C6
7C
ENDCHAR
STARTCHAR 0171
ENCODING 369
SWIDTH 613 0
DWIDTH 9 0
BBX 7 12 1 0
BITMAP
14
28
28
00
86
86
86
86
86
86
CE
76
ENDCHAR
STARTCHAR 0172
ENCODING 370
SWIDTH 613 0
DWIDTH 9 0
BBX 7 14 1 -3
BITMAP
82
82
82
82
82
82
82
82
82
C6
7C
10
20
38
ENDCHAR
STARTCHAR 0173
ENCODING 371
SWIDTH 613 0
DWIDTH 9 0
BBX 7 11 1 -3
BITMAP
86
86
86
86
86
86
CE
76
04
08
0E
ENDCHAR
STARTCHAR 0174
ENCODING 372
SWIDTH 613 0
DWIDTH 9 0
BBX 9 15 0 0
BITMAP
0800
1400
3600
0000
C880
DD80
5D00
5500
5500
5500
5500
7700
6300
6300
6200
ENDCHAR
STARTCHAR 0175
ENCODING 373
SWIDTH 613 0
DWIDTH 9 0
BBX 9 12 0 0
BITMAP
0800
1400
3600
0000
C880
DC80
5500
5500
5700
6300
6300
6300
ENDCHAR
STARTCHAR 0176
ENCODING 374
SWIDTH 613 0
DWIDTH 9 0
BBX 7 15 1 0
BITMAP
10
28
6C
00
C2
C6
6C
28
38
10
10
10
10
10
10
ENDCHAR
STARTCHAR 0177
ENCODING 375
SWIDTH 613 0
DWIDTH 9 0
BBX 8 15 0 -3
BITMAP
08
14
36
00
41
61
23
32
16
1C
0C
0C
08
18
F0
ENDCHAR
STARTCHAR 0178
ENCODING 376
SWIDTH 613 0
DWIDTH 9 0
BBX 7 14 1 0
BITMAP
6C
00
00
C2
C6
6C
28
38
10
10
10
10
10
10
ENDCHAR
STARTCHAR 0179
ENCODING 377
SWIDTH 613 0
DWIDTH 9 0
BBX 7 15 1 0
BITMAP
18
30
60
00
FE
06
0C
08
18
30
30
60
40
C0
FE
ENDCHAR
STARTCHAR 017A
ENCODING 378
SWIDTH 613 0
DWIDTH 9 0
BBX 7 12 1 0
BITMAP
18
30
60
00
FE
04
08
18
30
60
C0
FE
ENDCHAR
STARTCHAR 017B
ENCODING 379
SWIDTH 613 0
DWIDTH 9 0
BBX 7 15 1 0
BITMAP
10
38
10
00
FE
06
0C
08
18
30
30
60
40
C0
FE
ENDCHAR
STARTCHAR 017C
ENCODING 380
SWIDTH 613 0
DWIDTH 9 0
BBX 7 12 1 0
BITMAP
10
38
10
00
FE
04
08
18
30
60
C0
FE
ENDCHAR
STARTCHAR 017D
ENCODING 381
SWIDTH 613 0
DWIDTH 9 0
BBX 7 15 1 0
BITMAP
28
38
10
00
FE
06
0C
08
18
30
30
60
40
C0
FE
ENDCHAR
STARTCHAR 017E
ENCODING 382
SWIDTH 613 0
DWIDTH 9 0
BBX 7 12 1 0
BITMAP
28
38
10
00
FE
04
08
18
30
60
C0
FE
ENDCHAR
STARTCHAR 0192
ENCODING 402
SWIDTH 613 0
DWIDTH 9 0
BBX 8 15 1 -3
BITMAP
0F
18
10
30
3C
FC
20
60
60
40
40
40
C0
C0
80
ENDCHAR
STARTCHAR 02C6
ENCODING 710
SWIDTH 613 0
DWIDTH 9 0
BBX 5 3 2 9
BITMAP
20
50
D8
ENDCHAR
STARTCHAR 02C7
ENCODING 711
SWIDTH 613 0
DWIDTH 9 0
BBX 3 3 3 9
BITMAP
A0
E0
40
ENDCHAR
STARTCHAR 02C9
ENCODING 713
SWIDTH 613 0
DWIDTH 9 0
BBX 5 1 2 9
BITMAP
F8
ENDCHAR
STARTCHAR 02D8
ENCODING 728
SWIDTH 613 0
DWIDTH 9 0
BBX 5 3 2 9
BITMAP
88
50
20
ENDCHAR
STARTCHAR 02D9
ENCODING 729
SWIDTH 613 0
DWIDTH 9 0
BBX 3 3 3 9
BITMAP
40
E0
40
ENDCHAR
STARTCHAR 02DA
ENCODING 730
SWIDTH 613 0
DWIDTH 9 0
BBX 3 3 3 9
BITMAP
E0
A0
40
ENDCHAR
STARTCHAR 02DB
ENCODING 731
SWIDTH 613 0
DWIDTH 9 0
BBX 3 3 3 -3
BITMAP
40
80
E0
ENDCHAR
STARTCHAR 02DC
ENCODING 732
SWIDTH 613 0
DWIDTH 9 0
BBX 5 2 2 9
BITMAP
E8
90
ENDCHAR
STARTCHAR 02DD
ENCODING 733
SWIDTH 613 0
DWIDTH 9 0
BBX 4 3 3 9
BITMAP
50
A0
A0
ENDCHAR
STARTCHAR 03C0
ENCODING 960
SWIDTH 613 0
DWIDTH 9 0
BBX 8 8 0 0
BITMAP
FF
22
22
22
22
22
22
22
ENDCHAR
STARTCHAR 2013
ENCODING 8211
SWIDTH 613 0
DWIDTH 9 0
BBX 7 1 1 4
BITMAP
FE
ENDCHAR
STARTCHAR 2014
ENCODING 8212
SWIDTH 613 0
DWIDTH 9 0
BBX 7 1 1 4
BITMAP
FE
ENDCHAR
STARTCHAR 2018
ENCODING 8216
SWIDTH 613 0
DWIDTH 9 0
BBX 3 5 3 7
BITMAP
20
40
C0
E0
E0
ENDCHAR
STARTCHAR 2019
ENCODING 8217
SWIDTH 613 0
DWIDTH 9 0
BBX 3 5 3 7
BITMAP
C0
E0
20
60
C0
ENDCHAR
STARTCHAR 201A
ENCODING 8218
SWIDTH 613 0
DWIDTH 9 0
BBX 3 5 3 -3
BITMAP
E0
E0
60
40
C0
ENDCHAR
STARTCHAR 201C
ENCODING 8220
SWIDTH 613 0
DWIDTH 9 0
BBX 7 5 1 7
BITMAP
26
4C
C8
EC
6E
ENDCHAR
STARTCHAR 201D
ENCODING 8221
SWIDTH 613 0
DWIDTH 9 0
BBX 7 5 1 7
BITMAP
6C
EE
26
64
CC
ENDCHAR
STARTCHAR 201E
ENCODING 8222
SWIDTH 613 0
DWIDTH 9 0
BBX 7 5 1 -3
BITMAP
6C
EE
26
64
C8
ENDCHAR
STARTCHAR 2020
ENCODING 8224
SWIDTH 613 0
DWIDTH 9 0
BBX 7 14 1 -3
BITMAP
10
10
D6
FE
10
10
10
10
10
10
10
10
10
10
ENDCHAR
STARTCHAR 2021
ENCODING 8225
SWIDTH 613 0
DWIDTH 9 0
BBX 7 14 1 -3
BITMAP
10
10
D6
FE
10
10
10
10
10
D6
FE
10
10
10
ENDCHAR
STARTCHAR 2022
ENCODING 8226
SWIDTH 613 0
DWIDTH 9 0
BBX 7 6 1 3
BITMAP
38
7C
7E
FE
7C
7C
ENDCHAR
STARTCHAR 2026
ENCODING 8230
SWIDTH 613 0
DWIDTH 9 0
BBX 9 2 0 0
BITMAP
4900
FF80
ENDCHAR
STARTCHAR 2030
ENCODING 8240
SWIDTH 613 0
DWIDTH 9 0
BBX 9 11 0 0
BITMAP
F000
9080
9300
9400
7800
2000
FF00
2480
2480
2480
1B00
ENDCHAR
STARTCHAR 2036
ENCODING 8246
SWIDTH 613 0
DWIDTH 9 0
BBX 5 3 2 8
BITMAP
D0
50
28
ENDCHAR
STARTCHAR 2037
ENCODING 8247
SWIDTH 613 0
DWIDTH 9 0
BBX 7 3 1 8
BITMAP
F4
54
2A
ENDCHAR
STARTCHAR 2039
ENCODING 8249
SWIDTH 613 0
DWIDTH 9 0
BBX 5 8 2 0
BITMAP
18
30
60
C0
C0
20
10
08
ENDCHAR
STARTCHAR 203A
ENCODING 8250
SWIDTH 613 0
DWIDTH 9 0
BBX 5 8 2 0
BITMAP
C0
60
30
18
18
30
40
80
ENDCHAR
STARTCHAR 2044
ENCODING 8260
SWIDTH 613 0
DWIDTH 9 0
BBX 8 12 1 0
BITMAP
01
02
06
04
08
18
10
20
60
40
80
80
ENDCHAR
STARTCHAR 2070
ENCODING 8304
SWIDTH 613 0
DWIDTH 9 0
BBX 5 6 2 5
BITMAP
70
88
A8
A8
88
70
ENDCHAR
STARTCHAR 2074
ENCODING 8308
SWIDTH 613 0
DWIDTH 9 0
BBX 5 6 2 5
BITMAP
30
50
50
90
F8
10
ENDCHAR
STARTCHAR 2075
ENCODING 8309
SWIDTH 613 0
DWIDTH 9 0
BBX 5 6 2 5
BITMAP
70
80
70
10
08
F0
ENDCHAR
STARTCHAR 2076
ENCODING 8310
SWIDTH 613 0
DWIDTH 9 0
BBX 5 6 2 5
BITMAP
70
80
B0
C8
88
70
ENDCHAR
STARTCHAR 2077
ENCODING 8311
SWIDTH 613 0
DWIDTH 9 0
BBX 5 6 2 5
BITMAP
F8
10
10
20
20
40
ENDCHAR
STARTCHAR 2078
ENCODING 8312
SWIDTH 613 0
DWIDTH 9 0
BBX 5 6 2 5
BITMAP
70
88
50
70
88
70
ENDCHAR
STARTCHAR 2079
ENCODING 8313
SWIDTH 613 0
DWIDTH 9 0
BBX 5 6 2 5
BITMAP
70
90
88
78
10
70
ENDCHAR
STARTCHAR 207A
ENCODING 8314
SWIDTH 613 0
DWIDTH 9 0
BBX 5 5 2 5
BITMAP
20
20
F8
20
20
ENDCHAR
STARTCHAR 207B
ENCODING 8315
SWIDTH 613 0
DWIDTH 9 0
BBX 5 1 2 7
BITMAP
F8
ENDCHAR
STARTCHAR 207C
ENCODING 8316
SWIDTH 613 0
DWIDTH 9 0
BBX 5 3 2 6
BITMAP
F8
00
F8
ENDCHAR
STARTCHAR 207D
ENCODING 8317
SWIDTH 613 0
DWIDTH 9 0
BBX 2 7 3 4
BITMAP
40
40
80
80
80
40
40
ENDCHAR
STARTCHAR 207E
ENCODING 8318
SWIDTH 613 0
DWIDTH 9 0
BBX 2 7 4 4
BITMAP
80
80
80
40
80
80
80
ENDCHAR
STARTCHAR 2080
ENCODING 8320
SWIDTH 613 0
DWIDTH 9 0
BBX 5 6 2 0
BITMAP
70
88
A8
88
88
70
ENDCHAR
STARTCHAR 2081
ENCODING 8321
SWIDTH 613 0
DWIDTH 9 0
BBX 4 6 3 0
BITMAP
C0
40
40
40
40
F0
ENDCHAR
STARTCHAR 2082
ENCODING 8322
SWIDTH 613 0
DWIDTH 9 0
BBX 5 6 2 0
BITMAP
F0
10
10
20
40
F8
ENDCHAR
STARTCHAR 2083
ENCODING 8323
SWIDTH 613 0
DWIDTH 9 0
BBX 5 6 2 0
BITMAP
70
08
30
18
08
F0
ENDCHAR
STARTCHAR 2084
ENCODING 8324
SWIDTH 613 0
DWIDTH 9 0
BBX 5 6 2 0
BITMAP
30
50
50
90
F8
10
ENDCHAR
STARTCHAR 2085
ENCODING 8325
SWIDTH 613 0
DWIDTH 9 0
BBX 5 6 2 0
BITMAP
70
80
70
10
08
F0
ENDCHAR
STARTCHAR 2086
ENCODING 8326
SWIDTH 613 0
DWIDTH 9 0
BBX 5 6 2 0
BITMAP
70
80
F0
88
88
70
ENDCHAR
STARTCHAR 2087
ENCODING 8327
SWIDTH 613 0
DWIDTH 9 0
BBX 4 6 2 0
BITMAP
F0
10
10
20
20
40
ENDCHAR
STARTCHAR 2088
ENCODING 8328
SWIDTH 613 0
DWIDTH 9 0
BBX 5 6 2 0
BITMAP
70
88
70
88
88
70
ENDCHAR
STARTCHAR 2089
ENCODING 8329
SWIDTH 613 0
DWIDTH 9 0
BBX 5 6 2 0
BITMAP
70
90
88
78
10
70
ENDCHAR
STARTCHAR 208A
ENCODING 8330
SWIDTH 613 0
DWIDTH 9 0
BBX 5 5 2 0
BITMAP
20
20
F8
20
20
ENDCHAR
STARTCHAR 208B
ENCODING 8331
SWIDTH 613 0
DWIDTH 9 0
BBX 5 1 2 2
BITMAP
F8
ENDCHAR
STARTCHAR 208C
ENCODING 8332
SWIDTH 613 0
DWIDTH 9 0
BBX 5 3 2 1
BITMAP
F8
00
F8
ENDCHAR
STARTCHAR 208D
ENCODING 8333
SWIDTH 613 0
DWIDTH 9 0
BBX 2 7 3 -1
BITMAP
40
40
80
80
80
40
40
ENDCHAR
STARTCHAR 208E
ENCODING 8334
SWIDTH 613 0
DWIDTH 9 0
BBX 2 7 4 -1
BITMAP
80
80
40
40
80
80
80
ENDCHAR
STARTCHAR 20A3
ENCODING 8355
SWIDTH 613 0
DWIDTH 9 0
BBX 8 11 0 0
BITMAP
3F
20
20
20
20
3E
20
20
F8
20
20
ENDCHAR
STARTCHAR 2122
ENCODING 8482
SWIDTH 613 0
DWIDTH 9 0
BBX 8 5 1 6
BITMAP
E9
4B
57
55
51
ENDCHAR
STARTCHAR 2126
ENCODING 8486
SWIDTH 613 0
DWIDTH 9 0
BBX 9 12 0 0
BITMAP
1C00
3600
6300
4100
4100
4100
4100
4100
4100
6300
3600
F780
ENDCHAR
STARTCHAR 2194
ENCODING 8596
SWIDTH 613 0
DWIDTH 9 0
BBX 7 4 1 3
BITMAP
44
FE
82
44
ENDCHAR
STARTCHAR 2195
ENCODING 8597
SWIDTH 613 0
DWIDTH 9 0
BBX 5 8 2 0
BITMAP
20
70
28
20
20
A8
70
20
ENDCHAR
STARTCHAR 2196
ENCODING 8598
SWIDTH 613 0
DWIDTH 9 0
BBX 6 6 1 0
BITMAP
F0
E0
B0
18
0C
04
ENDCHAR
STARTCHAR 2197
ENCODING 8599
SWIDTH 613 0
DWIDTH 9 0
BBX 6 6 2 0
BITMAP
3C
1C
34
60
C0
80
ENDCHAR
STARTCHAR 2198
ENCODING 8600
SWIDTH 613 0
DWIDTH 9 0
BBX 7 6 1 0
BITMAP
C0
60
30
1A
0E
1E
ENDCHAR
STARTCHAR 2199
ENCODING 8601
SWIDTH 613 0
DWIDTH 9 0
BBX 7 6 1 0
BITMAP
06
0C
18
B0
E0
F0
ENDCHAR
STARTCHAR 21AA
ENCODING 8618
SWIDTH 613 0
DWIDTH 9 0
BBX 8 6 0 2
BITMAP
20
40
C2
7F
01
02
ENDCHAR
STARTCHAR 2202
ENCODING 8706
SWIDTH 613 0
DWIDTH 9 0
BBX 9 12 0 0
BITMAP
3800
0E00
0200
0300
1F00
3100
6180
4100
C100
C300
4200
3C00
ENDCHAR
STARTCHAR 2205
ENCODING 8709
SWIDTH 613 0
DWIDTH 9 0
BBX 7 8 1 1
BITMAP
38
6E
86
8A
92
A2
C6
FC
ENDCHAR
STARTCHAR 2206
ENCODING 8710
SWIDTH 613 0
DWIDTH 9 0
BBX 9 11 0 0
BITMAP
1C00
1C00
1400
3600
2600
2200
6300
4300
4100
C180
FF80
ENDCHAR
STARTCHAR 2207
ENCODING 8711
SWIDTH 613 0
DWIDTH 9 0
BBX 9 10 0 0
BITMAP
FF80
4100
4100
6300
2200
2200
3600
1400
1C00
0800
ENDCHAR
STARTCHAR 220F
ENCODING 8719
SWIDTH 613 0
DWIDTH 9 0
BBX 9 14 0 -3
BITMAP
FF80
2200
2200
2200
2200
2200
2200
2200
2200
2200
2200
2200
2200
2200
ENDCHAR
STARTCHAR 2211
ENCODING 8721
SWIDTH 613 0
DWIDTH 9 0
BBX 7 14 1 -3
BITMAP
FE
C0
60
60
30
30
18
10
20
60
40
C0
80
FE
ENDCHAR
STARTCHAR 2212
ENCODING 8722
SWIDTH 613 0
DWIDTH 9 0
BBX 7 2 1 3
BITMAP
FE
FE
ENDCHAR
STARTCHAR 2219
ENCODING 8729
SWIDTH 613 0
DWIDTH 9 0
BBX 3 2 3 3
BITMAP
E0
E0
ENDCHAR
STARTCHAR 221A
ENCODING 8730
SWIDTH 613 0
DWIDTH 9 0
BBX 9 15 0 -3
BITMAP
0180
0100
0300
0200
0200
0200
0600
C400
2400
2400
2400
1C00
1800
1800
0800
ENDCHAR
STARTCHAR 221E
ENCODING 8734
SWIDTH 613 0
DWIDTH 9 0
BBX 7 6 1 1
BITMAP
44
EA
B2
9A
AE
44
ENDCHAR
STARTCHAR 222B
ENCODING 8747
SWIDTH 613 0
DWIDTH 9 0
BBX 7 15 1 -3
BITMAP
04
0E
10
10
10
10
10
10
10
10
10
10
10
E0
40
ENDCHAR
STARTCHAR 2248
ENCODING 8776
SWIDTH 613 0
DWIDTH 9 0
BBX 9 6 0 1
BITMAP
7080
5D00
8700
7080
4D00
0200
ENDCHAR
STARTCHAR 2260
ENCODING 8800
SWIDTH 613 0
DWIDTH 9 0
BBX 7 6 1 1
BITMAP
04
FE
18
30
FE
40
ENDCHAR
STARTCHAR 2264
ENCODING 8804
SWIDTH 613 0
DWIDTH 9 0
BBX 7 10 1 0
BITMAP
02
0E
38
E0
70
1C
06
00
00
FE
ENDCHAR
STARTCHAR 2265
ENCODING 8805
SWIDTH 613 0
DWIDTH 9 0
BBX 7 10 1 0
BITMAP
80
E0
38
0E
1C
70
C0
00
00
FE
ENDCHAR
STARTCHAR 2334
ENCODING 9012
SWIDTH 613 0
DWIDTH 9 0
BBX 7 4 1 1
BITMAP
82
82
82
FE
ENDCHAR
STARTCHAR 2335
ENCODING 9013
SWIDTH 613 0
DWIDTH 9 0
BBX 7 4 1 0
BITMAP
82
44
28
10
ENDCHAR
STARTCHAR 2502
ENCODING 9474
SWIDTH 613 0
DWIDTH 9 0
BBX 1 20 4 -5
BITMAP
80
80
80
80
80
80
80
80
80
80
80
80
80
80
80
80
80
80
80
80
ENDCHAR
STARTCHAR 25B8
ENCODING 9656
SWIDTH 613 0
DWIDTH 9 0
BBX 5 5 2 2
BITMAP
C0
F0
F8
E0
80
ENDCHAR
STARTCHAR 25CA
ENCODING 9674
SWIDTH 613 0
DWIDTH 9 0
BBX 7 11 1 0
BITMAP
10
38
6C
44
82
82
C6
44
28
38
10
ENDCHAR
STARTCHAR 276E
ENCODING 10094
SWIDTH 613 0
DWIDTH 9 0
BBX 5 11 2 -1
BITMAP
18
38
30
60
E0
C0
C0
60
70
30
18
ENDCHAR
STARTCHAR 276F
ENCODING 10095
SWIDTH 613 0
DWIDTH 9 0
BBX 5 11 2 -1
BITMAP
C0
E0
60
30
38
18
18
30
70
60
C0
ENDCHAR
STARTCHAR F000
ENCODING 61440
SWIDTH 613 0
DWIDTH 9 0
BBX 7 9 1 0
BITMAP
08
08
7E
FE
FC
FC
FE
FE
7C
ENDCHAR
STARTCHAR F001
ENCODING 61441
SWIDTH 613 0
DWIDTH 9 0
BBX 8 12 0 0
BITMAP
1E
30
30
20
3F
FF
21
21
21
21
21
21
ENDCHAR
STARTCHAR F002
ENCODING 61442
SWIDTH 613 0
DWIDTH 9 0
BBX 8 12 0 0
BITMAP
1F
31
21
21
3D
FD
21
21
21
21
21
21
ENDCHAR
STARTCHAR F7FF
ENCODING 63487
SWIDTH 613 0
DWIDTH 9 0
BBX 7 9 1 0
BITMAP
08
08
7E
FE
FC
FC
FE
FE
7C
ENDCHAR
STARTCHAR FB01
ENCODING 64257
SWIDTH 613 0
DWIDTH 9 0
BBX 8 12 0 0
BITMAP
1E
30
30
20
3F
FF
21
21
21
21
21
21
ENDCHAR
STARTCHAR FB02
ENCODING 64258
SWIDTH 613 0
DWIDTH 9 0
BBX 8 12 0 0
BITMAP
1F
31
21
21
3D
FD
21
21
21
21
21
21
ENDCHAR
ENDFONT
